<svg width="180" height="180" viewBox="0 0 180 180" fill="none" xmlns="http://www.w3.org/2000/svg">
<path d="M90 9.67505L8.78906 74.6368V89.0508L90 24.075L171.211 89.0508V74.6368L90 9.67505ZM90 32.175L25.6641 83.6368V171.211H58.7109C58.7461 159.856 58.9922 143.262 62.2969 128.672C64.125 120.691 66.832 113.238 71.2266 107.578C75.6562 101.883 82.0195 98.086 90 98.086C97.9805 98.086 104.344 101.883 108.773 107.578C113.168 113.238 115.875 120.691 117.703 128.672C121.008 143.262 121.254 159.856 121.289 171.211H154.336V83.6368L90 32.175ZM57.6211 69.6797C59.0228 69.7153 60.4854 69.9812 61.875 70.4532C63.4248 70.9722 64.8286 71.7279 65.9281 72.6348C67.0276 73.5418 67.7791 74.5639 68.0977 75.586H111.902C112.221 74.5639 112.972 73.5418 114.072 72.6348C115.171 71.7279 116.575 70.9722 118.125 70.4532C119.515 69.9812 120.977 69.7153 122.379 69.6797C123.883 69.6517 125.259 69.8917 126.361 70.3744C127.462 70.8571 128.249 71.5645 128.637 72.4219C129.141 73.5218 128.961 74.8099 128.128 76.0666C127.295 77.3232 125.859 78.4705 124.066 79.3125C125.619 80.1765 126.82 81.2698 127.497 82.4332C128.174 83.5966 128.29 84.7695 127.828 85.7813C127.546 86.4085 127.05 86.9581 126.368 87.3985C125.687 87.8389 124.833 88.1615 123.856 88.3477C122.88 88.5339 121.799 88.58 120.677 88.4835C119.555 88.387 118.413 88.1497 117.316 87.7852C115.576 87.2005 114.026 86.3194 112.885 85.266C111.743 84.2127 111.067 83.0403 110.953 81.9141H69.0469C68.9327 83.0403 68.2571 84.2127 67.1155 85.266C65.9739 86.3194 64.4237 87.2005 62.6836 87.7852C61.5875 88.1497 60.4454 88.387 59.3231 88.4835C58.2008 88.58 57.1202 88.5339 56.1435 88.3477C55.1668 88.1615 54.3132 87.8389 53.6316 87.3985C52.95 86.9581 52.454 86.4085 52.1719 85.7813C51.7105 84.7695 51.8265 83.5966 52.503 82.4332C53.1796 81.2698 54.3814 80.1765 55.9336 79.3125C54.141 78.4705 52.7055 77.3232 51.872 76.0666C51.0385 74.8099 50.8587 73.5218 51.3633 72.4219C51.7514 71.5645 52.5378 70.8571 53.6393 70.3744C54.7408 69.8917 56.1165 69.6517 57.6211 69.6797Z" fill="white"/>
<rect x="50" y="94" width="81" height="77" fill="white"/>
<path opacity="0.5" d="M85.9277 105.375C85.75 107.35 85.75 109.83 85.75 112.967V149.033C85.75 152.17 85.75 154.65 85.9277 156.625H82.3333C74.2802 156.625 70.252 156.625 67.751 154.124C65.25 151.62 65.25 147.595 65.25 139.542V122.458C65.25 114.405 65.25 110.377 67.751 107.876C70.252 105.375 74.2802 105.375 82.3333 105.375H85.9277Z" fill="#84644D"/>
<path fill-rule="evenodd" clip-rule="evenodd" d="M88.1656 98.2308C85.75 100.373 85.75 104.292 85.75 112.126V149.874C85.75 157.708 85.75 161.627 88.1656 163.769C90.5812 165.912 94.2746 165.269 101.661 163.981L109.622 162.594C117.802 161.166 121.891 160.452 124.321 157.452C126.75 154.449 126.75 150.109 126.75 141.428V120.572C126.75 111.894 126.75 107.555 124.324 104.552C121.892 101.552 117.798 100.838 109.619 99.413L101.665 98.0224C94.278 96.7343 90.5846 96.092 88.169 98.2342M98.5659 127.43C98.5659 125.947 97.4179 124.748 96.0034 124.748C94.5889 124.748 93.4409 125.947 93.4409 127.426V134.581C93.4409 136.06 94.5889 137.259 96.0034 137.259C97.4179 137.259 98.5659 136.06 98.5659 134.581V127.43Z" fill="#84644D"/>
</svg>
