<svg xmlns="http://www.w3.org/2000/svg" xmlns:xlink="http://www.w3.org/1999/xlink" width="1080" zoomAndPan="magnify" viewBox="0 0 810 1012.49997" height="1350" preserveAspectRatio="xMidYMid meet" version="1.0"><defs><clipPath id="778f5c40c2"><path d="M 4 200.082031 L 809.800781 200.082031 L 809.800781 1006 L 4 1006 Z M 4 200.082031 " clip-rule="nonzero"/></clipPath></defs><g clip-path="url(#778f5c40c2)"><path fill="#e8c41c" d="M 807.707031 504.507812 C 807.117188 502.757812 806.414062 501.054688 805.59375 499.398438 C 804.773438 497.746094 803.839844 496.15625 802.800781 494.628906 C 801.761719 493.105469 800.621094 491.65625 799.382812 490.289062 C 798.144531 488.917969 796.816406 487.640625 795.402344 486.453125 C 793.988281 485.269531 792.496094 484.183594 790.933594 483.203125 C 789.371094 482.21875 787.746094 481.347656 786.0625 480.589844 C 784.378906 479.832031 782.652344 479.191406 780.878906 478.671875 C 779.109375 478.152344 777.308594 477.753906 775.484375 477.480469 L 546.378906 442.476562 L 443.464844 223.242188 C 442.65625 221.519531 441.734375 219.859375 440.691406 218.265625 C 439.644531 216.675781 438.496094 215.164062 437.238281 213.734375 C 435.980469 212.304688 434.628906 210.96875 433.183594 209.730469 C 431.738281 208.492188 430.210938 207.363281 428.601562 206.34375 C 426.996094 205.320312 425.324219 204.417969 423.589844 203.632812 C 421.855469 202.847656 420.074219 202.191406 418.246094 201.660156 C 416.417969 201.128906 414.5625 200.726562 412.675781 200.457031 C 410.792969 200.191406 408.898438 200.054688 406.992188 200.054688 C 405.089844 200.054688 403.195312 200.191406 401.3125 200.457031 C 399.425781 200.726562 397.570312 201.128906 395.742188 201.660156 C 393.914062 202.191406 392.132812 202.847656 390.398438 203.632812 C 388.660156 204.417969 386.992188 205.320312 385.382812 206.34375 C 383.777344 207.363281 382.25 208.492188 380.804688 209.730469 C 379.359375 210.96875 378.007812 212.304688 376.75 213.734375 C 375.492188 215.164062 374.339844 216.675781 373.296875 218.265625 C 372.253906 219.859375 371.328125 221.519531 370.523438 223.242188 L 267.648438 442.476562 L 38.425781 477.480469 C 36.601562 477.757812 34.808594 478.160156 33.042969 478.6875 C 31.277344 479.210938 29.554688 479.855469 27.878906 480.617188 C 26.203125 481.378906 24.582031 482.25 23.027344 483.234375 C 21.46875 484.21875 19.984375 485.304688 18.574219 486.492188 C 17.167969 487.679688 15.847656 488.957031 14.613281 490.324219 C 13.378906 491.691406 12.246094 493.136719 11.210938 494.664062 C 10.175781 496.1875 9.246094 497.773438 8.429688 499.425781 C 7.613281 501.074219 6.914062 502.773438 6.328125 504.523438 C 5.746094 506.269531 5.28125 508.046875 4.941406 509.859375 C 4.601562 511.671875 4.386719 513.496094 4.296875 515.335938 C 4.207031 517.175781 4.246094 519.011719 4.40625 520.847656 C 4.570312 522.683594 4.855469 524.5 5.269531 526.292969 C 5.679688 528.089844 6.214844 529.847656 6.867188 531.570312 C 7.519531 533.292969 8.285156 534.964844 9.167969 536.582031 C 10.050781 538.199219 11.039062 539.75 12.132812 541.230469 C 13.230469 542.710938 14.421875 544.113281 15.707031 545.429688 L 182.742188 716.613281 L 143.1875 958.890625 C 142.886719 960.746094 142.714844 962.613281 142.671875 964.496094 C 142.632812 966.375 142.722656 968.25 142.945312 970.117188 C 143.164062 971.984375 143.515625 973.828125 143.996094 975.648438 C 144.476562 977.464844 145.078125 979.242188 145.808594 980.976562 C 146.539062 982.710938 147.382812 984.382812 148.347656 986 C 149.308594 987.617188 150.378906 989.15625 151.558594 990.621094 C 152.738281 992.085938 154.015625 993.464844 155.386719 994.75 C 156.757812 996.035156 158.210938 997.222656 159.75 998.304688 C 161.289062 999.386719 162.894531 1000.359375 164.566406 1001.214844 C 166.242188 1002.074219 167.964844 1002.8125 169.742188 1003.429688 C 171.519531 1004.042969 173.332031 1004.535156 175.175781 1004.894531 C 177.023438 1005.257812 178.882812 1005.492188 180.761719 1005.59375 C 182.640625 1005.695312 184.515625 1005.664062 186.390625 1005.503906 C 188.265625 1005.34375 190.117188 1005.050781 191.949219 1004.632812 C 193.785156 1004.210938 195.578125 1003.664062 197.335938 1002.992188 C 199.089844 1002.320312 200.792969 1001.53125 202.4375 1000.617188 L 407.015625 887.558594 L 611.589844 1000.617188 C 613.234375 1001.53125 614.9375 1002.320312 616.691406 1002.992188 C 618.449219 1003.664062 620.246094 1004.210938 622.078125 1004.632812 C 623.910156 1005.050781 625.765625 1005.34375 627.636719 1005.503906 C 629.511719 1005.664062 631.386719 1005.695312 633.265625 1005.59375 C 635.144531 1005.492188 637.003906 1005.257812 638.851562 1004.894531 C 640.695312 1004.535156 642.507812 1004.042969 644.285156 1003.425781 C 646.0625 1002.8125 647.789062 1002.074219 649.460938 1001.214844 C 651.136719 1000.359375 652.742188 999.386719 654.277344 998.304688 C 655.816406 997.222656 657.269531 996.035156 658.640625 994.75 C 660.015625 993.464844 661.289062 992.085938 662.46875 990.621094 C 663.648438 989.15625 664.71875 987.617188 665.683594 986 C 666.644531 984.382812 667.492188 982.710938 668.21875 980.976562 C 668.949219 979.242188 669.550781 977.464844 670.03125 975.648438 C 670.511719 973.828125 670.863281 971.984375 671.082031 970.117188 C 671.304688 968.25 671.394531 966.375 671.355469 964.496094 C 671.3125 962.613281 671.140625 960.746094 670.839844 958.890625 L 631.324219 716.613281 L 798.359375 545.429688 C 799.648438 544.109375 800.835938 542.710938 801.929688 541.226562 C 803.023438 539.742188 804.011719 538.195312 804.894531 536.574219 C 805.773438 534.957031 806.539062 533.285156 807.191406 531.5625 C 807.84375 529.839844 808.375 528.078125 808.785156 526.28125 C 809.195312 524.484375 809.480469 522.671875 809.640625 520.835938 C 809.804688 519 809.839844 517.160156 809.746094 515.320312 C 809.65625 513.480469 809.4375 511.65625 809.097656 509.84375 C 808.753906 508.03125 808.292969 506.253906 807.707031 504.507812 Z M 559.429688 674.925781 C 558.332031 676.050781 557.304688 677.234375 556.347656 678.476562 C 555.390625 679.722656 554.507812 681.019531 553.703125 682.363281 C 552.898438 683.710938 552.171875 685.101562 551.527344 686.535156 C 550.882812 687.964844 550.328125 689.429688 549.855469 690.925781 C 549.382812 692.425781 549 693.945312 548.703125 695.484375 C 548.410156 697.027344 548.207031 698.582031 548.09375 700.148438 C 547.980469 701.714844 547.957031 703.28125 548.027344 704.847656 C 548.097656 706.417969 548.261719 707.976562 548.511719 709.527344 L 577.957031 889.972656 L 426.46875 806.273438 C 424.984375 805.453125 423.453125 804.730469 421.878906 804.105469 C 420.300781 803.476562 418.691406 802.953125 417.050781 802.527344 C 415.40625 802.105469 413.746094 801.789062 412.0625 801.574219 C 410.378906 801.359375 408.691406 801.253906 406.992188 801.253906 C 405.296875 801.253906 403.609375 801.359375 401.925781 801.574219 C 400.242188 801.789062 398.582031 802.105469 396.9375 802.527344 C 395.296875 802.953125 393.6875 803.476562 392.109375 804.105469 C 390.535156 804.730469 389.003906 805.453125 387.519531 806.273438 L 236.070312 889.972656 L 265.515625 709.527344 C 265.769531 707.976562 265.929688 706.417969 266 704.847656 C 266.070312 703.28125 266.046875 701.714844 265.933594 700.148438 C 265.824219 698.582031 265.617188 697.027344 265.324219 695.484375 C 265.03125 693.945312 264.644531 692.425781 264.171875 690.925781 C 263.703125 689.429688 263.144531 687.964844 262.5 686.535156 C 261.855469 685.101562 261.132812 683.710938 260.324219 682.363281 C 259.519531 681.019531 258.636719 679.722656 257.679688 678.476562 C 256.722656 677.234375 255.695312 676.050781 254.601562 674.925781 L 128.085938 545.269531 L 301.082031 518.847656 C 302.710938 518.597656 304.316406 518.25 305.902344 517.800781 C 307.488281 517.355469 309.039062 516.8125 310.558594 516.175781 C 312.078125 515.539062 313.554688 514.8125 314.984375 513.992188 C 316.414062 513.175781 317.789062 512.273438 319.105469 511.285156 C 320.425781 510.300781 321.679688 509.234375 322.867188 508.09375 C 324.058594 506.953125 325.171875 505.746094 326.210938 504.46875 C 327.253906 503.191406 328.210938 501.855469 329.085938 500.460938 C 329.964844 499.0625 330.753906 497.621094 331.453125 496.128906 L 407.015625 335.015625 L 482.578125 496.128906 C 483.277344 497.621094 484.0625 499.0625 484.941406 500.460938 C 485.816406 501.855469 486.773438 503.191406 487.816406 504.46875 C 488.855469 505.746094 489.96875 506.953125 491.160156 508.09375 C 492.347656 509.234375 493.601562 510.300781 494.921875 511.285156 C 496.238281 512.273438 497.613281 513.175781 499.042969 513.992188 C 500.472656 514.8125 501.949219 515.539062 503.46875 516.175781 C 504.988281 516.8125 506.539062 517.355469 508.125 517.800781 C 509.710938 518.25 511.316406 518.597656 512.945312 518.847656 L 685.941406 545.269531 Z M 559.429688 674.925781 " fill-opacity="1" fill-rule="nonzero"/></g></svg>