<svg xmlns="http://www.w3.org/2000/svg" xmlns:xlink="http://www.w3.org/1999/xlink" width="1080" zoomAndPan="magnify" viewBox="0 0 810 1012.49997" height="1350" preserveAspectRatio="xMidYMid meet" version="1.0"><defs><clipPath id="c257d31161"><path d="M 4 202.398438 L 809.800781 202.398438 L 809.800781 1008 L 4 1008 Z M 4 202.398438 " clip-rule="nonzero"/></clipPath></defs><g clip-path="url(#c257d31161)"><path fill="#e8c41c" d="M 807.707031 506.824219 C 807.117188 505.074219 806.414062 503.371094 805.59375 501.71875 C 804.773438 500.066406 803.839844 498.476562 802.800781 496.949219 C 801.761719 495.421875 800.621094 493.976562 799.382812 492.605469 C 798.144531 491.238281 796.816406 489.960938 795.402344 488.773438 C 793.988281 487.585938 792.496094 486.5 790.933594 485.519531 C 789.371094 484.539062 787.746094 483.667969 786.0625 482.910156 C 784.378906 482.152344 782.652344 481.511719 780.878906 480.992188 C 779.109375 480.46875 777.308594 480.074219 775.484375 479.796875 L 546.378906 444.796875 L 443.464844 225.558594 C 442.65625 223.835938 441.734375 222.179688 440.691406 220.585938 C 439.644531 218.992188 438.496094 217.480469 437.238281 216.050781 C 435.980469 214.621094 434.628906 213.289062 433.183594 212.050781 C 431.738281 210.8125 430.210938 209.683594 428.601562 208.660156 C 426.996094 207.640625 425.324219 206.738281 423.589844 205.953125 C 421.855469 205.167969 420.074219 204.507812 418.246094 203.976562 C 416.417969 203.445312 414.5625 203.046875 412.675781 202.777344 C 410.792969 202.507812 408.898438 202.375 406.992188 202.375 C 405.089844 202.375 403.195312 202.507812 401.3125 202.777344 C 399.425781 203.046875 397.570312 203.445312 395.742188 203.976562 C 393.914062 204.507812 392.132812 205.167969 390.398438 205.953125 C 388.660156 206.738281 386.992188 207.640625 385.382812 208.660156 C 383.777344 209.683594 382.25 210.8125 380.804688 212.050781 C 379.359375 213.289062 378.007812 214.621094 376.75 216.050781 C 375.492188 217.480469 374.339844 218.992188 373.296875 220.585938 C 372.253906 222.179688 371.328125 223.835938 370.523438 225.558594 L 267.648438 444.796875 L 38.425781 479.800781 C 36.601562 480.078125 34.808594 480.476562 33.042969 481 C 31.273438 481.527344 29.550781 482.167969 27.875 482.929688 C 26.195312 483.6875 24.574219 484.558594 23.015625 485.542969 C 21.457031 486.523438 19.972656 487.609375 18.5625 488.796875 C 17.152344 489.984375 15.832031 491.261719 14.59375 492.628906 C 13.359375 493.996094 12.226562 495.441406 11.1875 496.964844 C 10.152344 498.488281 9.222656 500.078125 8.40625 501.726562 C 7.585938 503.378906 6.886719 505.078125 6.300781 506.824219 C 5.714844 508.574219 5.253906 510.351562 4.910156 512.164062 C 4.570312 513.976562 4.355469 515.800781 4.265625 517.640625 C 4.171875 519.480469 4.210938 521.320312 4.371094 523.15625 C 4.53125 524.992188 4.820312 526.808594 5.230469 528.605469 C 5.640625 530.402344 6.171875 532.160156 6.828125 533.882812 C 7.480469 535.605469 8.246094 537.277344 9.128906 538.894531 C 10.011719 540.515625 11 542.066406 12.09375 543.546875 C 13.1875 545.03125 14.378906 546.429688 15.667969 547.75 L 182.703125 718.933594 L 143.230469 961.207031 C 142.925781 963.066406 142.753906 964.933594 142.714844 966.8125 C 142.671875 968.695312 142.761719 970.566406 142.984375 972.4375 C 143.207031 974.304688 143.558594 976.148438 144.035156 977.964844 C 144.515625 979.785156 145.121094 981.558594 145.847656 983.292969 C 146.578125 985.027344 147.421875 986.703125 148.386719 988.320312 C 149.351562 989.933594 150.421875 991.472656 151.601562 992.941406 C 152.777344 994.40625 154.054688 995.78125 155.425781 997.066406 C 156.796875 998.355469 158.253906 999.539062 159.789062 1000.621094 C 161.328125 1001.707031 162.933594 1002.675781 164.605469 1003.535156 C 166.28125 1004.390625 168.007812 1005.128906 169.78125 1005.746094 C 171.558594 1006.363281 173.371094 1006.851562 175.214844 1007.214844 C 177.0625 1007.578125 178.925781 1007.808594 180.800781 1007.910156 C 182.679688 1008.011719 184.554688 1007.984375 186.429688 1007.824219 C 188.304688 1007.660156 190.15625 1007.371094 191.992188 1006.949219 C 193.824219 1006.53125 195.617188 1005.984375 197.375 1005.3125 C 199.132812 1004.640625 200.832031 1003.847656 202.480469 1002.9375 L 407.015625 889.875 L 611.589844 1002.9375 C 613.234375 1003.847656 614.9375 1004.640625 616.691406 1005.3125 C 618.449219 1005.984375 620.246094 1006.53125 622.078125 1006.949219 C 623.910156 1007.371094 625.765625 1007.660156 627.636719 1007.824219 C 629.511719 1007.984375 631.386719 1008.011719 633.265625 1007.910156 C 635.144531 1007.808594 637.003906 1007.578125 638.851562 1007.214844 C 640.695312 1006.851562 642.507812 1006.363281 644.285156 1005.746094 C 646.0625 1005.128906 647.789062 1004.390625 649.460938 1003.535156 C 651.136719 1002.675781 652.742188 1001.707031 654.277344 1000.621094 C 655.816406 999.539062 657.269531 998.355469 658.640625 997.066406 C 660.015625 995.78125 661.289062 994.40625 662.46875 992.941406 C 663.648438 991.472656 664.71875 989.933594 665.683594 988.320312 C 666.644531 986.703125 667.492188 985.027344 668.21875 983.292969 C 668.949219 981.558594 669.550781 979.785156 670.03125 977.964844 C 670.511719 976.148438 670.863281 974.304688 671.082031 972.4375 C 671.304688 970.566406 671.394531 968.695312 671.355469 966.8125 C 671.3125 964.933594 671.140625 963.066406 670.839844 961.207031 L 631.324219 718.933594 L 798.359375 547.75 C 799.648438 546.429688 800.835938 545.027344 801.929688 543.546875 C 803.023438 542.0625 804.011719 540.511719 804.894531 538.894531 C 805.773438 537.273438 806.539062 535.605469 807.191406 533.878906 C 807.84375 532.15625 808.375 530.398438 808.785156 528.601562 C 809.195312 526.804688 809.480469 524.988281 809.640625 523.152344 C 809.804688 521.316406 809.839844 519.480469 809.746094 517.640625 C 809.65625 515.796875 809.4375 513.972656 809.097656 512.164062 C 808.753906 510.351562 808.292969 508.574219 807.707031 506.824219 Z M 807.707031 506.824219 " fill-opacity="1" fill-rule="nonzero"/></g></svg>