<svg width="188" height="223" viewBox="0 0 188 223" fill="none" xmlns="http://www.w3.org/2000/svg">
<path fill-rule="evenodd" clip-rule="evenodd" d="M104.889 187.033C106.653 178.832 106.315 171.025 104.194 161.754C114.01 162.579 123.412 156.818 126.209 147.603C126.584 145.97 125.871 144.844 125.307 144.506C123.074 143.212 120.146 141.672 118.363 140.528C115.661 126.96 111.157 124.144 101.585 119.827L101.549 119.808C100.59 119.339 100.234 118.401 100.271 117.519L100.553 111.964C100.685 109.542 99.8394 108.811 97.8694 108.98C63.8258 114.891 72.8151 150.474 58.3824 164.588C58.3824 164.588 58.0069 144.6 62.5486 128.779C67.0904 112.959 75.1983 111.663 74.8605 99.896C73.9038 94.209 72.0641 89.9688 69.3432 87.4725C55.2105 74.5416 35.6185 71.9888 35.243 46.5779C35.1865 42.487 44.5512 44.1758 51.7198 44.1946C58.8897 44.2135 67.692 40.5531 75.1229 33.6658C82.5553 26.7974 104.626 28.2992 118.27 33.1788C131.913 38.0583 153.327 64.5014 149.836 70.413C146.346 76.3059 123.412 89.6499 120.033 90.1935C116.637 90.7371 109.355 80.6591 113.521 70.3376C117.688 60.0161 117.688 56.3935 115.98 51.1196C114.253 45.8646 111.4 43.1625 111.4 43.1625C111.4 43.1625 116.993 52.7142 110.613 66.9977C104.251 81.2796 113.672 97.2127 116.974 96.556C120.278 95.9182 132.515 89.3672 132.515 89.3672C132.515 89.3672 139.458 123.505 151.619 141.204C154.003 144.676 158.413 149.855 163.95 156.161C177.631 140.791 186.376 120.841 187.522 98.6768C190.224 46.9345 150.455 2.81294 98.6957 0.128184C46.9345 -2.55512 2.81292 37.2131 0.128168 88.9729C-2.10429 132.026 25.052 169.805 64.0316 182.829C71.9148 185.457 80.2663 187.09 88.9743 187.54C94.886 187.859 100.215 187.465 104.889 187.033ZM81.0534 46.3155C83.5497 46.446 85.4836 48.5856 85.3516 51.0819C85.2197 53.5782 83.08 55.5106 80.5852 55.3802C78.0889 55.2482 76.1551 53.1086 76.287 50.6137C76.4189 48.1174 78.5571 46.1836 81.0534 46.3155ZM105.545 144.619C103.2 144.487 101.398 142.498 101.53 140.153C101.641 137.806 103.649 136.005 105.996 136.136C108.342 136.249 110.144 138.257 110.012 140.602C109.881 142.93 107.891 144.732 105.545 144.619Z" fill="#84644D"/>
<path d="M18.041 206.851H25.0747C27.1347 206.851 28.7336 207.341 29.8702 208.318C31.0096 209.292 31.5807 210.681 31.5807 212.481C31.5807 214.371 31.0096 215.841 29.8702 216.888C28.7336 217.932 27.1347 218.454 25.0747 218.454H22.1464V223H18.041V206.851ZM22.1464 210.08V215.224H24.866C25.7734 215.224 26.4736 215.002 26.9651 214.557C27.4594 214.109 27.7073 213.461 27.7073 212.614C27.7073 211.788 27.4594 211.159 26.9651 210.73C26.4736 210.298 25.7734 210.08 24.866 210.08H22.1464Z" fill="#84644D"/>
<path d="M53.2904 210.081H44.7548V213.288H52.4612V216.517H44.7548V219.77H53.5455V223H40.6494V206.851H53.2904V210.081Z" fill="#84644D"/>
<path d="M75.4609 210.15H70.5959V223H66.4847V210.15H61.666V206.827H75.4609V210.15Z" fill="#84644D"/>
<path d="M101.877 223H98.2583L98.2351 212.504L94.3558 221.382H91.6827L87.8034 212.504V223H84.1387V206.828H88.6326L93.0163 216.448L97.4001 206.828H101.877V223Z" fill="#84644D"/>
<path d="M122.78 220.025H115.717L114.54 223H110.318L117.288 206.851H121.51L128.317 223H123.933L122.78 220.025ZM121.579 216.912L119.271 210.933L116.917 216.912H121.579Z" fill="#84644D"/>
<path d="M149.077 210.15H144.212V223H140.101V210.15H135.282V206.828H149.077V210.15Z" fill="#84644D"/>
<path d="M170.395 210.08H161.859V213.287H169.566V216.517H161.859V219.77H170.65V223H157.754V206.851H170.395V210.08Z" fill="#84644D"/>
</svg>
