<svg width="82" height="82" viewBox="0 0 82 82" fill="none" xmlns="http://www.w3.org/2000/svg">
<path opacity="0.5" d="M30.9277 15.375C30.75 17.3498 30.75 19.8303 30.75 22.9668V59.0332C30.75 62.1697 30.75 64.6502 30.9277 66.625H27.3333C19.2802 66.625 15.252 66.625 12.751 64.124C10.25 61.6196 10.25 57.5948 10.25 49.5417V32.4583C10.25 24.4052 10.25 20.377 12.751 17.876C15.252 15.375 19.2802 15.375 27.3333 15.375H30.9277Z" fill="#84644D"/>
<path fill-rule="evenodd" clip-rule="evenodd" d="M33.1656 8.23079C30.75 10.373 30.75 14.292 30.75 22.1264V59.8737C30.75 67.7081 30.75 71.627 33.1656 73.7693C35.5812 75.9115 39.2746 75.2692 46.6614 73.9811L54.6223 72.594C62.8018 71.1658 66.8915 70.4517 69.3208 67.4519C71.75 64.4486 71.75 60.1095 71.75 51.4277V30.5724C71.75 21.894 71.75 17.5549 69.3242 14.5516C66.8915 11.5518 62.7983 10.8377 54.6188 9.41296L46.6648 8.02237C39.278 6.73429 35.5846 6.09196 33.169 8.23421M43.5659 37.4296C43.5659 35.9468 42.4179 34.7475 41.0034 34.7475C39.5889 34.7475 38.4409 35.9468 38.4409 37.4262V44.5807C38.4409 46.0601 39.5889 47.2594 41.0034 47.2594C42.4179 47.2594 43.5659 46.0601 43.5659 44.5807V37.4296Z" fill="#84644D"/>
</svg>
